<?xml version="1.0" encoding="utf-8"?>
<!-- Generator: Adobe Illustrator 22.0.0, SVG Export Plug-In . SVG Version: 6.00 Build 0)  -->
<svg version="1.1" id="图层_1" xmlns="http://www.w3.org/2000/svg" xmlns:xlink="http://www.w3.org/1999/xlink" x="0px" y="0px"
	 viewBox="0 0 150 150" style="enable-background:new 0 0 150 150;" xml:space="preserve">
<path d="M149.5,74.5h-18.3c-0.2-10.1-6-18.7-14.5-23l23-13.3c0.2-0.1,0.3-0.4,0.2-0.7c-0.1-0.2-0.4-0.3-0.7-0.2l-23,13.3
	c0-0.5,0-1,0-1.5c0-9.6-5.1-17.9-12.8-22.6l9.2-15.9c0.1-0.2,0.1-0.5-0.2-0.7c-0.2-0.1-0.5-0.1-0.7,0.2l-9.2,15.9
	c-3.8-2.1-8.1-3.3-12.7-3.3c-5.3,0-10.3,1.6-14.4,4.3V0.5C75.5,0.2,75.3,0,75,0s-0.5,0.2-0.5,0.5v26.6c-4.1-2.7-9.1-4.3-14.4-4.3
	c-4.6,0-9,1.2-12.7,3.3l-9.2-15.9C38,10,37.7,9.9,37.5,10c-0.2,0.1-0.3,0.4-0.2,0.7l9.2,15.9c-7.6,4.6-12.8,13-12.8,22.6
	c0,0.5,0,1,0,1.5l-23-13.3c-0.2-0.1-0.5-0.1-0.7,0.2c-0.1,0.2-0.1,0.5,0.2,0.7l23,13.3c-8.4,4.3-14.3,13-14.5,23H0.5
	C0.2,74.5,0,74.7,0,75s0.2,0.5,0.5,0.5h18.3c0.2,10.1,6,18.7,14.5,23l-23,13.3c-0.2,0.1-0.3,0.4-0.2,0.7c0.1,0.2,0.3,0.2,0.4,0.2
	c0.1,0,0.2,0,0.2-0.1l23-13.3c0,0.5,0,1,0,1.5c0,9.6,5.1,17.9,12.8,22.6l-9.2,15.9c-0.1,0.2-0.1,0.5,0.2,0.7c0.1,0,0.2,0.1,0.2,0.1
	c0.2,0,0.3-0.1,0.4-0.2l9.2-15.9c3.8,2.1,8.1,3.3,12.7,3.3c5.3,0,10.3-1.6,14.4-4.3v26.6c0,0.3,0.2,0.5,0.5,0.5s0.5-0.2,0.5-0.5
	v-26.6c4.1,2.7,9.1,4.3,14.4,4.3c4.6,0,9-1.2,12.7-3.3l9.2,15.9c0.1,0.2,0.3,0.2,0.4,0.2c0.1,0,0.2,0,0.2-0.1
	c0.2-0.1,0.3-0.4,0.2-0.7l-9.2-15.9c7.6-4.6,12.8-13,12.8-22.6c0-0.5,0-1,0-1.5l23,13.3c0.1,0,0.2,0.1,0.2,0.1
	c0.2,0,0.3-0.1,0.4-0.2c0.1-0.2,0.1-0.5-0.2-0.7l-23-13.3c8.4-4.3,14.3-13,14.5-23h18.3c0.3,0,0.5-0.2,0.5-0.5
	S149.8,74.5,149.5,74.5z M130.2,74.5h-28.9c0-0.5,0-1.1-0.1-1.6c8-3.8,13.7-11.5,14.8-20.7C124.3,56.4,130,64.8,130.2,74.5z
	 M85.4,100.9c0,8.2-3.9,15.5-9.9,20.1v-19.6c3.5-0.1,6.8-0.8,9.9-2.1C85.4,99.8,85.4,100.3,85.4,100.9z M64.6,99.2
	c3,1.3,6.4,2.1,9.9,2.1V121c-6-4.6-9.9-11.9-9.9-20.1C64.6,100.3,64.6,99.8,64.6,99.2z M64.6,49.1c0-8.2,3.9-15.5,9.9-20.1v19.6
	c-3.5,0.1-6.8,0.8-9.9,2.1C64.6,50.2,64.6,49.7,64.6,49.1z M85.4,50.8c-3-1.3-6.4-2.1-9.9-2.1V29c6,4.6,9.9,11.9,9.9,20.1
	C85.4,49.7,85.4,50.2,85.4,50.8z M76.9,74.5l1.7-1c0,0.3,0,0.7,0,1H76.9z M76.4,73.6l0.8-1.4c0.3,0.2,0.6,0.3,0.9,0.5L76.4,73.6z
	 M75.5,73.1v-2c0.3,0.2,0.5,0.4,0.8,0.5L75.5,73.1z M74.5,73.1l-0.8-1.4c0.3-0.2,0.6-0.3,0.8-0.5V73.1z M73.6,73.6l-1.7-1
	c0.3-0.1,0.6-0.3,0.9-0.5L73.6,73.6z M73.1,74.5h-1.7c0-0.3,0-0.7,0-1L73.1,74.5z M73.1,75.5l-1.7,1c0-0.3,0-0.7,0-1H73.1z
	 M73.6,76.4l-0.8,1.4c-0.3-0.2-0.6-0.3-0.9-0.5L73.6,76.4z M74.5,76.9v2c-0.3-0.2-0.5-0.4-0.8-0.5L74.5,76.9z M75.5,76.9l0.8,1.4
	c-0.3,0.2-0.6,0.3-0.8,0.5V76.9z M76.4,76.4l1.7,1c-0.3,0.1-0.6,0.3-0.9,0.5L76.4,76.4z M76.9,75.5h1.7c0,0.3,0,0.7,0,1L76.9,75.5z
	 M79.6,73.4c1,0.4,2.1,0.8,3.2,1.1h-3.3C79.5,74.1,79.5,73.7,79.6,73.4z M77.7,71.3l1.6-2.8c-0.3,1.1-0.5,2.2-0.6,3.3
	C78.4,71.7,78,71.5,77.7,71.3z M76.8,70.8c-0.3-0.2-0.6-0.4-1-0.6c0.9-0.7,1.8-1.5,2.6-2.3L76.8,70.8z M73.2,70.8L71.5,68
	c0.8,0.8,1.7,1.6,2.6,2.3C73.8,70.4,73.5,70.6,73.2,70.8z M72.3,71.3c-0.3,0.2-0.7,0.4-1,0.5c-0.1-1.1-0.3-2.3-0.6-3.3L72.3,71.3z
	 M70.5,74.5h-3.3c1.1-0.3,2.2-0.7,3.2-1.1C70.5,73.7,70.5,74.1,70.5,74.5z M70.5,75.5c0,0.4,0,0.8,0,1.1c-1-0.4-2.1-0.8-3.2-1.1
	H70.5z M72.3,78.7l-1.6,2.8c0.3-1.1,0.5-2.2,0.6-3.3C71.6,78.3,72,78.5,72.3,78.7z M73.2,79.2c0.3,0.2,0.6,0.4,1,0.6
	c-0.9,0.7-1.8,1.4-2.6,2.3L73.2,79.2z M76.8,79.2l1.7,2.9c-0.8-0.8-1.7-1.6-2.6-2.3C76.2,79.6,76.5,79.4,76.8,79.2z M77.7,78.7
	c0.3-0.2,0.7-0.4,1-0.5c0.1,1.1,0.3,2.3,0.6,3.3L77.7,78.7z M79.5,75.5h3.3c-1.1,0.3-2.2,0.7-3.2,1.1C79.5,76.3,79.5,75.9,79.5,75.5
	z M80.2,72.6l17-9.8c1.6,2.9,2.7,6.1,3,9.6c-3.1,1.4-6.6,2.2-10.3,2.2C86.5,74.5,83.2,73.8,80.2,72.6z M98.1,62.3l17-9.8
	c-1.1,8.5-6.5,15.7-13.9,19.4C100.7,68.4,99.7,65.2,98.1,62.3z M97.6,61.4c-1.8-2.9-4.1-5.5-6.8-7.5c4-2.7,8.9-4.3,14.1-4.3
	c3.4,0,6.7,0.7,9.7,1.9L97.6,61.4z M96.7,61.9l-17,9.8c0.9-7,4.7-13.2,10.2-17.2C92.6,56.5,95,59,96.7,61.9z M86.4,56.2l1.7-2.9
	c0.3,0.2,0.6,0.4,1,0.6C88.1,54.6,87.3,55.4,86.4,56.2z M85.6,55.6c0.3-1.1,0.5-2.2,0.6-3.3c0.3,0.2,0.7,0.3,1,0.5L85.6,55.6z
	 M75.5,69.3V49.7c3.5,0.1,6.8,0.8,9.8,2.2C84.5,58.9,80.9,65.1,75.5,69.3z M74.5,49.7v19.6c-5.4-4.1-9-10.3-9.8-17.4
	C67.7,50.5,71,49.7,74.5,49.7z M64.4,55.6l-1.6-2.8c0.3-0.2,0.7-0.4,1-0.5C63.9,53.4,64.1,54.5,64.4,55.6z M63.6,56.2
	c-0.8-0.8-1.7-1.6-2.6-2.3c0.3-0.2,0.6-0.4,1-0.6L63.6,56.2z M70.3,71.7l-17-9.8c1.7-2.9,4.1-5.4,6.8-7.4
	C65.5,58.5,69.4,64.7,70.3,71.7z M52.4,61.4l-17-9.8c3-1.2,6.3-1.9,9.7-1.9c5.2,0,10,1.6,14.1,4.3C56.5,55.9,54.2,58.5,52.4,61.4z
	 M51.9,62.3c-1.6,2.9-2.7,6.2-3.1,9.6C41.4,68.2,36.1,61,34.9,52.4L51.9,62.3z M52.8,62.8l17,9.8c-3,1.2-6.3,1.9-9.7,1.9
	c-3.7,0-7.1-0.8-10.3-2.2C50.1,68.9,51.2,65.6,52.8,62.8z M52.9,74.5h-3.3c0-0.4,0-0.8,0-1.1C50.7,73.8,51.8,74.2,52.9,74.5z
	 M52.9,75.5c-1.1,0.3-2.2,0.7-3.2,1.1c0-0.4,0-0.8,0-1.1H52.9z M60.1,75.5c3.4,0,6.7,0.7,9.7,1.9l-17,9.8c-1.6-2.9-2.7-6.1-3-9.6
	C52.9,76.3,56.4,75.5,60.1,75.5z M51.9,87.7l-17,9.8c1.1-8.5,6.5-15.7,13.9-19.4C49.3,81.6,50.3,84.8,51.9,87.7z M52.4,88.6
	c1.8,2.9,4.1,5.5,6.8,7.5c-4,2.7-8.9,4.3-14.1,4.3c-3.4,0-6.7-0.7-9.7-1.9L52.4,88.6z M53.3,88.1l17-9.8c-0.9,7-4.7,13.2-10.2,17.2
	C57.4,93.5,55,91,53.3,88.1z M63.6,93.8l-1.7,2.9c-0.3-0.2-0.6-0.4-1-0.6C61.9,95.4,62.7,94.6,63.6,93.8z M64.4,94.4
	c-0.3,1.1-0.5,2.2-0.6,3.3c-0.3-0.2-0.7-0.3-1-0.5L64.4,94.4z M74.5,80.7v19.6c-3.5-0.1-6.8-0.8-9.8-2.2
	C65.5,91.1,69.1,84.9,74.5,80.7z M75.5,100.3V80.7c5.4,4.1,9,10.3,9.8,17.4C82.3,99.5,79,100.3,75.5,100.3z M85.6,94.4l1.6,2.8
	c-0.3,0.2-0.7,0.4-1,0.5C86.1,96.6,85.9,95.5,85.6,94.4z M86.4,93.8c0.8,0.8,1.7,1.6,2.6,2.3c-0.3,0.2-0.6,0.4-1,0.6L86.4,93.8z
	 M79.7,78.3l17,9.8c-1.7,2.9-4.1,5.4-6.8,7.4C84.5,91.5,80.6,85.3,79.7,78.3z M97.6,88.6l17,9.8c-3,1.2-6.3,1.9-9.7,1.9
	c-5.2,0-10-1.6-14.1-4.3C93.5,94.1,95.8,91.5,97.6,88.6z M98.1,87.7c1.6-2.9,2.7-6.2,3.1-9.6c7.4,3.7,12.8,10.9,13.9,19.4L98.1,87.7
	z M97.2,87.2l-17-9.8c3-1.2,6.3-1.9,9.7-1.9c3.7,0,7.1,0.8,10.3,2.2C99.9,81.1,98.8,84.4,97.2,87.2z M97.1,75.5h3.3
	c0,0.4,0,0.8,0,1.1C99.3,76.2,98.2,75.8,97.1,75.5z M97.1,74.5c1.1-0.3,2.2-0.7,3.2-1.1c0,0.4,0,0.8,0,1.1H97.1z M115.3,49.1
	c0,0.5,0,1.1-0.1,1.6c-3.2-1.4-6.7-2.1-10.4-2.1c-5.5,0-10.7,1.7-14.9,4.7c-0.4-0.3-0.9-0.6-1.3-0.9l14.4-25
	C110.4,31.9,115.3,40,115.3,49.1z M102.2,26.9l-14.4,25c-0.5-0.3-0.9-0.5-1.4-0.7c0.1-0.7,0.1-1.4,0.1-2.1c0-8.6-4.2-16.3-10.6-21.1
	c4-2.7,8.9-4.3,14.1-4.3C94.4,23.8,98.5,24.9,102.2,26.9z M60.1,23.8c5.2,0,10,1.6,14.1,4.3c-6.4,4.8-10.6,12.5-10.6,21.1
	c0,0.7,0,1.4,0.1,2.1c-0.5,0.2-0.9,0.5-1.4,0.7l-14.4-25C51.5,24.9,55.6,23.8,60.1,23.8z M47,27.4l14.4,25c-0.5,0.3-0.9,0.6-1.3,0.9
	c-4.2-2.9-9.4-4.7-14.9-4.7c-3.7,0-7.2,0.8-10.4,2.1c0-0.5-0.1-1.1-0.1-1.6C34.7,40,39.6,31.9,47,27.4z M33.9,52.3
	c1.1,9.1,6.8,16.8,14.8,20.7c0,0.5-0.1,1-0.1,1.6H19.8C20,64.8,25.7,56.4,33.9,52.3z M19.8,75.5h28.9c0,0.5,0,1.1,0.1,1.6
	c-8,3.8-13.7,11.5-14.8,20.7C25.7,93.6,20,85.2,19.8,75.5z M34.7,100.9c0-0.5,0-1.1,0.1-1.6c3.2,1.4,6.7,2.1,10.4,2.1
	c5.5,0,10.7-1.7,14.9-4.7c0.4,0.3,0.9,0.6,1.3,0.9l-14.4,25C39.6,118.1,34.7,110,34.7,100.9z M47.8,123.1l14.4-25
	c0.5,0.3,0.9,0.5,1.4,0.7c-0.1,0.7-0.1,1.4-0.1,2.1c0,8.6,4.2,16.3,10.6,21.1c-4,2.7-8.9,4.3-14.1,4.3
	C55.6,126.2,51.5,125.1,47.8,123.1z M89.9,126.2c-5.2,0-10-1.6-14.1-4.3c6.4-4.8,10.6-12.5,10.6-21.1c0-0.7,0-1.4-0.1-2.1
	c0.5-0.2,0.9-0.5,1.4-0.7l14.4,25C98.5,125.1,94.4,126.2,89.9,126.2z M103,122.6l-14.4-25c0.5-0.3,0.9-0.6,1.3-0.9
	c4.2,2.9,9.4,4.7,14.9,4.7c3.7,0,7.2-0.8,10.4-2.1c0,0.5,0.1,1.1,0.1,1.6C115.3,110,110.4,118.1,103,122.6z M116.1,97.7
	c-1.1-9.1-6.8-16.8-14.8-20.7c0-0.5,0.1-1,0.1-1.6h28.9C130,85.2,124.3,93.6,116.1,97.7z"/>
</svg>
