<?xml version="1.0" encoding="utf-8"?>
<!-- Generator: Adobe Illustrator 22.0.0, SVG Export Plug-In . SVG Version: 6.00 Build 0)  -->
<svg version="1.1" id="图层_1" xmlns="http://www.w3.org/2000/svg" xmlns:xlink="http://www.w3.org/1999/xlink" x="0px" y="0px"
	 viewBox="0 0 120 120" style="enable-background:new 0 0 120 120;" xml:space="preserve">
<path d="M105.3070831,60.4500008H120v-0.9000015h-14.6929169c-0.16819-8.0592575-4.8401108-15.0310783-11.5960464-18.4934692
	l18.4754868-10.666832l-0.4499969-0.7793961L93.2638474,40.2755013c0.0185318-0.3631706,0.0279465-0.7287064,0.0279465-1.0964012
	c0-7.6974659-4.1099014-14.4530678-10.2505264-18.1876869l7.3484802-12.7279367l-0.7794952-0.4499998l-7.3482666,12.7275887
	c-3.0398026-1.6769714-6.5306778-2.6328621-10.2409897-2.6328621c-4.264061,0-8.2384109,1.2621822-11.5709953,3.4311409V0
	h-0.9000015v21.3393307c-3.3325691-2.168951-7.3068886-3.4311275-11.5709457-3.4311275
	c-3.7103462,0-7.2012444,0.9558907-10.2410698,2.6328678L30.389698,7.8134766L29.610302,8.2634764l7.3484573,12.7279119
	C30.8180847,24.7260017,26.7081547,31.481617,26.7081547,39.1791c0,0.3676834,0.0094166,0.7332115,0.0279484,1.0963707
	L8.2634764,29.610302L7.8134766,30.389698L26.2889652,41.05653c-6.7559395,3.4623909-11.4278507,10.4342117-11.5960455,18.4934692H0
	v0.9000015h14.6929197c0.1681948,8.0592461,4.8400888,15.0310555,11.596015,18.4934502L7.8134766,89.6102524l0.4499998,0.7794952
	l18.4726181-10.665184c-0.0185299,0.3631516-0.0279408,0.7286606-0.0279408,1.0963364
	c0,7.6974869,4.10993,14.4531021,10.2506046,18.1877136l-7.3484573,12.7279129l0.7793961,0.4499969l7.3482857-12.7275925
	c3.0398254,1.6769791,6.5307236,2.6328659,10.2410698,2.6328659c4.2640572,0,8.2383766-1.2621765,11.5709457-3.4311295V120
	h0.9000015V98.6606598c3.3325844,2.1689529,7.3069344,3.4311371,11.5709953,3.4311371
	c3.7103119,0,7.2011871-0.9558868,10.2409897-2.6328583l7.3482666,12.7275848l0.7794952-0.4499969l-7.3484802-12.7279358
	C89.1818924,95.2739716,93.2917938,88.518364,93.2917938,80.8209c0-0.3676834-0.0094147-0.7332077-0.0279465-1.0963669
	l18.4726791,10.6652145l0.4499969-0.7794952L93.7110672,78.9434509
	C100.4669952,75.4810562,105.1388931,68.5092468,105.3070831,60.4500008z M104.4070816,59.5499992H81.2651825
	c-0.0083237-0.3988533-0.0267105-0.795269-0.0568085-1.1884995c6.3985367-3.0770035,11.0299606-9.2632408,11.9248581-16.5873833
	C99.6883926,45.057251,104.2375946,51.7731552,104.4070816,59.5499992z M68.3498993,80.8209
	c0,6.5381241-3.096817,12.3658829-7.8998985,16.0957947V81.2651825c2.7832832-0.0580826,5.4368553-0.6528473,7.8609581-1.6857147
	C68.3357849,79.9902878,68.3498993,80.4039459,68.3498993,80.8209z M51.6889877,79.5794449
	c2.424118,1.0328751,5.077713,1.627655,7.8610115,1.6857376v15.651535
	c-4.8031197-3.7299118-7.8999519-9.5576859-7.8999519-16.0958176
	C51.6500473,80.4039383,51.6641655,79.9902725,51.6889877,79.5794449z M51.6500473,39.1791
	c0-6.5381622,3.0968323-12.3659229,7.8999519-16.095829v15.6515427c-2.7832985,0.0580864-5.4368935,0.6528625-7.8610115,1.6857414
	C51.6641655,40.0097275,51.6500473,39.5960579,51.6500473,39.1791z M68.3109589,40.4205322
	c-2.4241028-1.0328674-5.0776749-1.6276321-7.8609581-1.6857185V23.0832939
	c4.8030815,3.729908,7.8998985,9.5576553,7.8998985,16.0958061C68.3498993,39.5960503,68.3357849,40.0097122,68.3109589,40.4205322z
	 M61.6794357,59.5499992l1.119503-0.6463432c-0.010952,0.2145576-0.0177193,0.4301758-0.0222282,0.6463432H61.6794357z
	 M61.2294502,58.7705498l0.550457-0.9534225c0.1890984,0.1043205,0.3793716,0.206749,0.5719109,0.3054237L61.2294502,58.7705498z
	 M60.4500008,58.3205566v-1.3016968c0.1818848,0.1183777,0.3649902,0.2350273,0.5506516,0.3479385L60.4500008,58.3205566z
	 M59.5499992,58.3205643l-0.5506477-0.9537544c0.1856575-0.1129112,0.368763-0.2295532,0.5506477-0.3479385V58.3205643z
	 M58.7705574,58.7705574l-1.122364-0.6479988c0.1925354-0.0986748,0.3828049-0.2010994,0.571907-0.3054199L58.7705574,58.7705574z
	 M58.3205643,59.5499992h-1.0972748c-0.004509-0.2161674-0.0112762-0.4317856-0.0222282-0.6463432L58.3205643,59.5499992z
	 M58.3205566,60.4500008l-1.1194954,0.6463432c0.010952-0.2145576,0.0177193-0.4301758,0.0222282-0.6463432H58.3205566z
	 M58.7705498,61.2294502l-0.5504494,0.9534111c-0.1890945-0.1043205-0.379364-0.2067451-0.5718994-0.3054199L58.7705498,61.2294502z
	 M59.5499992,61.6794357v1.301693c-0.1818848-0.1183853-0.3649902-0.2350273-0.5506477-0.3479385L59.5499992,61.6794357z
	 M60.4500008,61.6794434l0.5506516,0.9537582c-0.1856613,0.1129112-0.3687668,0.2295609-0.5506516,0.3479385V61.6794434z
	 M61.2294502,61.2294502l1.1223679,0.6479988c-0.1925392,0.0986748-0.3828125,0.2011032-0.5719109,0.3054237L61.2294502,61.2294502z
	 M61.6794434,60.4500008h1.0972672c0.004509,0.2161674,0.0112762,0.4317856,0.0222282,0.6463432L61.6794434,60.4500008z
	 M63.709938,58.7585258c0.7100067,0.3025284,1.4400787,0.5665169,2.1869583,0.7914734h-2.2201881
	C63.6824875,59.2848396,63.6940727,59.0211258,63.709938,58.7585258z M62.2298279,57.0378494l1.106617-1.9167137
	c-0.1759834,0.7469864-0.3122215,1.5090446-0.4068871,2.2838326C62.6937485,57.2868652,62.4603348,57.1647339,62.2298279,57.0378494
	z M61.4507561,56.5872002c-0.2275505-0.1386833-0.4515305-0.2825928-0.6731262-0.4298286
	c0.6283264-0.4748268,1.2295609-0.9835815,1.8009834-1.5236816L61.4507561,56.5872002z M58.5492363,56.5871887l-1.127861-1.9535103
	c0.5714226,0.5401001,1.1726608,1.0488548,1.8009872,1.5236816C59.0007706,56.3045959,58.7767868,56.4485054,58.5492363,56.5871887z
	 M57.7701721,57.0378342c-0.2305069,0.1268883-0.4639244,0.2490234-0.6997299,0.3671265
	c-0.0946732-0.7747841-0.2309036-1.5368576-0.4068871-2.283844L57.7701721,57.0378342z M56.3232918,59.5499992h-2.2201424
	c0.7468567-0.2249489,1.4769173-0.4889336,2.1869125-0.7914543C56.3059273,59.0211372,56.3175125,59.2848434,56.3232918,59.5499992z
	 M56.3232918,60.4500008c-0.0057793,0.2651558-0.0173645,0.528862-0.0332298,0.7914543
	c-0.7099953-0.3025208-1.4400558-0.5665054-2.1869125-0.7914543H56.3232918z M57.7701645,62.9621696l-1.1066093,1.9167137
	c0.1759834-0.7469864,0.3122139-1.5090485,0.4068871-2.2838326C57.3062477,62.7131577,57.5396538,62.835289,57.7701645,62.9621696z
	 M58.5492325,63.4128189c0.2275429,0.1386757,0.4515305,0.2825966,0.6731262,0.4298325
	c-0.6283264,0.4748306-1.2295609,0.9835663-1.8009834,1.5236664L58.5492325,63.4128189z M61.4507561,63.4128113l1.1278572,1.9534988
	c-0.5714188-0.5401001-1.1726494-1.048851-1.800972-1.5236702C60.9992371,63.6954041,61.2232132,63.5514908,61.4507561,63.4128113z
	 M62.2298355,62.9621658c0.2305107-0.1268806,0.463913-0.2490196,0.6997223-0.3671227
	c0.0946732,0.7747803,0.2309113,1.5368385,0.4068871,2.2838173L62.2298355,62.9621658z M63.6767082,60.4500008h2.2201881
	c-0.7468796,0.2249565-1.4769516,0.488945-2.1869583,0.7914734C63.6940727,60.9788742,63.6824875,60.7151604,63.6767082,60.4500008z
	 M64.3083496,58.032196l13.5503845-7.8233261c1.2665634,2.3009682,2.1011276,4.8714027,2.3942413,7.6017761
	c-2.5186996,1.1171989-5.3038712,1.7393532-8.2319794,1.7393532C69.2926788,59.5499992,66.6886139,59.0095139,64.3083496,58.032196z
	 M78.6380386,49.7589417l13.5679779-7.8334846c-0.9188614,6.7880058-5.1934128,12.5243607-11.0936813,15.4795227
	C80.7771988,54.6620979,79.9179916,52.0790939,78.6380386,49.7589417z M78.1877136,48.9796982
	c-1.4053268-2.3107224-3.2390289-4.3331451-5.389122-5.9579697c3.224411-2.1423645,7.0903397-3.3926277,11.2433014-3.3926277
	c2.728302,0,5.3323593,0.5404854,7.7126236,1.5178108L78.1877136,48.9796982z M77.4080963,49.4298172l-13.5513229,7.8238525
	c0.7586136-5.604126,3.8044205-10.4912987,8.1641769-13.6887512C74.1769028,45.1460991,76.012352,47.1396713,77.4080963,49.4298172z
	 M69.4423828,44.5453415l1.1278152-1.9534302c0.2275391,0.1386795,0.4515152,0.282589,0.6731033,0.4298172
	C70.6149979,43.4965324,70.0137863,44.0052681,69.4423828,44.5453415z M68.684433,44.058094
	c0.1759949-0.7470284,0.3122406-1.5091438,0.4069138-2.2839775c0.235817,0.1181068,0.4692459,0.2402458,0.6997757,0.3671379
	L68.684433,44.058094z M60.4500008,55.27491V39.6348152c2.7634697,0.0602226,5.3926888,0.6738396,7.7819786,1.7336349
	C67.6264801,47.0088272,64.7097321,51.9669571,60.4500008,55.27491z M59.5499992,39.6348152v15.6401176
	c-4.2597542-3.3079529-7.1765251-8.2660904-7.7820244-13.9064713
	C54.1572762,40.3086624,56.7865067,39.6950378,59.5499992,39.6348152z M51.3155022,44.0580063l-1.1066399-1.9167519
	c0.2305107-0.1268883,0.4639359-0.2490196,0.699749-0.3671265C51.0032845,42.5489311,51.1395149,43.3110123,51.3155022,44.0580063z
	 M50.5576477,44.545372c-0.5714111-0.5400848-1.1726456-1.0488319-1.8009644-1.5236549
	c0.2215996-0.1472282,0.4455757-0.2911453,0.6731262-0.429821L50.5576477,44.545372z M56.1432266,57.2536697l-13.5513306-7.8238602
	c1.3957367-2.2901497,3.2311935-4.2837143,5.3871574-5.8649063C52.3388138,46.7623596,55.3846207,51.6495361,56.1432266,57.2536697z
	 M41.8122864,48.9796982L28.2454777,41.146904c2.3802547-0.9773254,4.9843197-1.5178032,7.7126293-1.5178032
	c4.152977,0,8.0189056,1.2502556,11.2433167,3.3926163C45.0513191,44.6465454,43.2176132,46.6689682,41.8122864,48.9796982z
	 M41.3619614,49.7589417c-1.279953,2.3201523-2.1391602,4.9031487-2.4742966,7.6460342
	c-5.9002991-2.9551697-10.1748714-8.6915359-11.0937309-15.4795494L41.3619614,49.7589417z M42.1412544,50.2088623
	l13.550396,7.8233337c-2.380249,0.9773178-4.9843025,1.5178032-7.7125969,1.5178032
	c-2.9281273,0-5.7133141-0.6221542-8.2320251-1.7393608C40.0401382,55.0802612,40.8746872,52.5098343,42.1412544,50.2088623z
	 M41.85495,59.5499992h-2.2201347c0.0057793-0.2651558,0.0173569-0.528862,0.033226-0.7914543
	C40.3780327,59.061058,41.1080933,59.3250504,41.85495,59.5499992z M41.85495,60.4500008
	c-0.7468567,0.2249489-1.4769173,0.4889412-2.1869087,0.7914543c-0.0158615-0.2625923-0.0274467-0.5262985-0.033226-0.7914543
	H41.85495z M47.9790535,60.4500008c2.7282906,0,5.3323364,0.5404778,7.7125854,1.5178032l-13.5503845,7.8233185
	c-1.2665596-2.300972-2.1011124-4.8713989-2.3942223-7.6017532C42.2657471,61.0721626,45.0509262,60.4500008,47.9790535,60.4500008z
	 M41.3619576,70.2410431l-13.568018,7.8334961c0.9188709-6.7879791,5.1934376-12.5243378,11.0937252-15.4795074
	C39.2228012,65.3379059,40.0820122,67.9208984,41.3619576,70.2410431z M41.812294,71.0203094
	c1.4053268,2.31073,3.2390251,4.3331299,5.3891144,5.957962c-3.2243996,2.1423645-7.090332,3.3926239-11.2433014,3.3926239
	c-2.7282906,0-5.3323441-0.5404739-7.7125931-1.5177917L41.812294,71.0203094z M42.5919113,70.5701981l13.5513077-7.8238602
	c-0.758606,5.6041107-3.8044128,10.4912872-8.1641655,13.6887436C45.823101,74.8538971,43.9876595,72.8603287,42.5919113,70.5701981
	z M50.5576477,75.454628l-1.1278305,1.9534683c-0.2275467-0.1386719-0.4515266-0.2825928-0.6731224-0.4298248
	C49.3850098,76.5034561,49.9862366,75.9947128,50.5576477,75.454628z M51.3155022,75.9419937
	c-0.1759872,0.746994-0.3122177,1.5090714-0.4068909,2.2838745c-0.2358093-0.118103-0.4692307-0.2402496-0.6997414-0.3671341
	L51.3155022,75.9419937z M59.5499992,64.7250824v15.6401062c-2.7634926-0.0602264-5.3927193-0.6738586-7.7820168-1.7336578
	C52.3734818,72.9911804,55.2902451,68.0330353,59.5499992,64.7250824z M60.4500008,80.3651886V64.7251053
	c4.2597237,3.3079605,7.1764793,8.2660904,7.7819786,13.9064407C65.8426895,79.6913376,63.2134705,80.3049622,60.4500008,80.3651886
	z M68.684433,75.9419098l1.1066818,1.9168243c-0.2305222,0.1268845-0.4639511,0.2490311-0.6997681,0.3671417
	C68.9966736,77.4510422,68.8604279,76.6889343,68.684433,75.9419098z M69.4423828,75.4546585
	c0.5714035,0.5400772,1.1726074,1.0488052,1.8009109,1.5236053c-0.2215881,0.1472321-0.4455643,0.2911377-0.6731033,0.4298172
	L69.4423828,75.4546585z M63.856781,62.7463379l13.5513,7.8238525c-1.3957367,2.2901306-3.2311859,4.283699-5.3871307,5.8648834
	C67.6612015,73.2376175,64.6153946,68.3504333,63.856781,62.7463379z M78.187706,71.0203094l13.5667725,7.8327942
	c-2.380249,0.9773178-4.9842987,1.5177917-7.7125854,1.5177917c-4.1529617,0-8.0188828-1.2502594-11.2432938-3.3926315
	C74.9486923,75.3534393,76.7823868,73.3310318,78.187706,71.0203094z M78.6380463,70.2410431
	c1.2799377-2.3201447,2.1391525-4.9031372,2.4742889-7.6460114c5.9002533,2.955162,10.1747971,8.6915054,11.0936737,15.4794769
	L78.6380463,70.2410431z M77.8587341,69.7911148L64.3083572,61.967804c2.3802567-0.9773178,4.9843216-1.5178032,7.7126389-1.5178032
	c2.9281082,0,5.7132721,0.6221542,8.2319717,1.7393608C79.9598541,64.9197235,79.1252899,67.4901505,77.8587341,69.7911148z
	 M78.14505,60.4500008h2.2201385c-0.0057831,0.2651558-0.0173645,0.528862-0.0332336,0.7914543
	C79.6219635,60.9389343,78.8919067,60.6749496,78.14505,60.4500008z M78.14505,59.5499992
	c0.7468567-0.2249489,1.4769135-0.4889336,2.1869049-0.7914543c0.0158691,0.2625923,0.0274506,0.5262985,0.0332336,0.7914543
	H78.14505z M92.3917999,39.1791c0,0.4169502-0.0141144,0.8306122-0.0389404,1.2414322
	c-2.5544891-1.0884323-5.3635712-1.6914291-8.3109665-1.6914291c-4.4577255,0-8.5987778,1.3794365-12.0209427,3.7323418
	c-0.3273468-0.2250671-0.6604767-0.4422798-1.0006409-0.6491508l11.5708542-20.0412865
	C88.4629593,25.3496342,92.3917999,31.814106,92.3917999,39.1791z M81.8120651,21.320343l-11.571022,20.0416145
	c-0.3456421-0.1906815-0.6966782-0.3727112-1.0536575-0.544384c0.0413895-0.5408211,0.0625153-1.0872269,0.0625153-1.6384735
	c0-6.9278717-3.3297501-13.0920582-8.472271-16.9782696c3.2244148-2.1423702,7.0903664-3.3926277,11.2433662-3.3926277
	C75.5675507,18.8082027,78.9047928,19.7200375,81.8120651,21.320343z M47.9790535,18.8082027
	c4.1529732,0,8.0189018,1.2502632,11.243309,3.3926392c-5.1425362,3.8862133-8.4723129,10.0503902-8.4723129,16.9782581
	c0,0.5512543,0.0211296,1.0976639,0.0625229,1.6384964c-0.3569679,0.1716614-0.7079964,0.3536911-1.0536308,0.5443649
	L38.1879082,21.3203621C41.0952034,19.7200508,44.432476,18.8082027,47.9790535,18.8082027z M37.4088631,21.7709961
	l11.5708351,20.0412903c-0.3401604,0.2068787-0.6732941,0.4240913-1.0006447,0.6491585
	c-3.4221687-2.3529053-7.563221-3.7323418-12.0209465-3.7323418c-2.9474144,0-5.7565079,0.6030121-8.3110123,1.691452
	c-0.0248222-0.4108276-0.0389404-0.8244972-0.0389404-1.2414551C27.6081543,31.8140926,31.5370178,25.3496208,37.4088631,21.7709961
	z M26.8667183,41.774128c0.8949032,7.3241501,5.5263405,13.5103874,11.9249077,16.5873756
	c-0.030098,0.3932343-0.0484848,0.78965-0.0568123,1.1884956H15.5929203
	C15.7623959,51.7731705,20.3115788,45.0572739,26.8667183,41.774128z M15.5929203,60.4500008h23.1418934
	c0.0083275,0.3988457,0.0267143,0.7952614,0.0568123,1.1884956c-6.3985672,3.0769882-11.0300045,9.2632217-11.9249077,16.5873718
	C20.3115788,74.9427109,15.7623959,68.226799,15.5929203,60.4500008z M27.6081543,80.8209
	c0-0.4169617,0.0141182-0.8306274,0.0389404-1.2414551c2.5545044,1.0884399,5.3635979,1.691452,8.3110123,1.691452
	c4.4577255,0,8.5987778-1.3794327,12.0209465-3.732338c0.3273506,0.2250671,0.6604843,0.442276,1.0006447,0.6491547
	L37.4088669,98.2289963C31.5370293,94.6503677,27.6081543,88.1858749,27.6081543,80.8209z M38.1879158,98.6796265
	l11.5710258-20.0415878c0.3456345,0.1906738,0.6966629,0.3727036,1.0536308,0.5443649
	c-0.0413933,0.5408325-0.0625229,1.0872421-0.0625229,1.6384964c0,6.9278641,3.3297768,13.0920334,8.4723091,16.9782486
	c-3.224411,2.1423721-7.0903397,3.3926468-11.2433052,3.3926468
	C44.432476,101.1917953,41.0952072,100.2799377,38.1879158,98.6796265z M72.0209961,101.1917953
	c-4.1529999,0-8.0189362-1.250267-11.2433548-3.3926392c5.1425095-3.8862076,8.4722595-10.0503922,8.4722595-16.9782562
	c0-0.5512466-0.0211258-1.0976486-0.0625153-1.6384735c0.3569794-0.171669,0.7080154-0.3537064,1.0536575-0.5443802
	l11.5710144,20.0415955C78.9047928,100.279953,75.567543,101.1917953,72.0209961,101.1917953z M82.591156,98.228981
	L71.0203094,78.187706c0.3401642-0.206871,0.6732941-0.4240799,1.0006409-0.649147
	c3.4221649,2.3529053,7.5632172,3.732338,12.0209427,3.732338c2.9473953,0,5.7564774-0.6029968,8.3109665-1.6914291
	c0.024826,0.41082,0.0389404,0.8244781,0.0389404,1.2414322C92.3917999,88.1858673,88.4629593,94.6503448,82.591156,98.228981z
	 M93.1332321,78.2258759c-0.8949051-7.3241501-5.5263214-13.510376-11.9248581-16.5873756
	c0.030098-0.3932304,0.0484848-0.7896461,0.0568085-1.1884995h23.1418991
	C104.2375946,68.2268066,99.6883926,74.9427261,93.1332321,78.2258759z"/>
</svg>
